<?xml version="1.0" encoding="utf-8"?>
<!-- Generator: Adobe Illustrator 27.1.0, SVG Export Plug-In . SVG Version: 6.00 Build 0)  -->
<svg version="1.1" id="Camada_1" xmlns="http://www.w3.org/2000/svg" xmlns:xlink="http://www.w3.org/1999/xlink" x="0px" y="0px"
	 viewBox="0 0 776 838" style="enable-background:new 0 0 776 838;" xml:space="preserve">
<style type="text/css">
	.st0{fill-rule:evenodd;clip-rule:evenodd;fill:#603C85;}
</style>
<path class="st0" d="M504.5,692.8c-83.3,25.4-159,8.5-203.5-89.9c-37.6-83.1,59.9-156.9,146-195.9c91.2-41.3,159.5-16.5,185.5,94.8
	C650,576.6,597.6,664.4,504.5,692.8 M116.5,342.4c6.7,21.6,39.4,40.5,57.2,50.5c71.8,40.1,156.5,29.4,214.6-26.9
	C531.6,227,373,29.3,361.6,84c-3.5,16.7,42.3,40.2,57.6,111.6c25.9,121.1-88.3,208.5-175.7,195.3c-31.9-4.8-72.4-25.4-96.7-48.7
	C132.4,328.3,128.8,323.6,116.5,342.4z M253.9,128.4c-52.1,57.7,46,154.3,91,93.4C382.1,171.6,299.2,78.3,253.9,128.4z M151.1,201.2
	C101.9,254,186.2,349,235.8,301.8c21.7-20.6,18.1-60-4.5-87.7C212.6,191.2,173.9,176.8,151.1,201.2z M570.7,760.5
	c-240.1,106.3-273.8-55.1-397.4-259C117.9,410.1,56.2,341.8,52.4,240.6C46.7,86.7,255.3-63.5,415.1,64.4
	c62,49.6,129.2,176.8,178.9,250.4c46.3,68.4,134.9,177.1,130,255.6C720.5,628.6,650.2,725.4,570.7,760.5z"/>
</svg>
