<?xml version="1.0" encoding="utf-8"?>
<!-- Generator: Adobe Illustrator 27.1.0, SVG Export Plug-In . SVG Version: 6.00 Build 0)  -->
<svg version="1.1" id="Camada_1" xmlns="http://www.w3.org/2000/svg" xmlns:xlink="http://www.w3.org/1999/xlink" x="0px" y="0px"
	 viewBox="0 0 1046 1008" style="enable-background:new 0 0 1046 1008;" xml:space="preserve">
<style type="text/css">
	.st0{fill-rule:evenodd;clip-rule:evenodd;fill:#F5AA17;}
	.st1{fill-rule:evenodd;clip-rule:evenodd;fill:#FFD400;}
</style>
<path class="st0" d="M525.2,627.9c99.4,0,188.5-79.8,188.5-178.6v-22c0-47.7-36.9-94.2-61.8-119.3c-28.2-28.4-77.6-47.1-134-47.1
	c-94.3,0-185,87.3-181.3,185.9C340.5,548.2,422.5,627.9,525.2,627.9 M676.9,434.7c0,15.3-3.3,42.4-12.2,48.9l3-36.6
	c3.5-43.3-31.1-89.1-52.5-109.6c-29.4-28-65.2-37.2-121.8-37.2c4.8-6.6,13.1-9.8,24.5-9.8h7.3C605.6,290.4,676.9,354.7,676.9,434.7z
	"/>
<path class="st1" d="M735.7,461.6v12.2c0,40.7,24.4,72.6,59.3,77.8c34,5,84.4,20.1,119.4,20.1h26.9c47.8,0,71-56.8,71-107.6v-2.4
	c0-56.2-39.8-97.9-97.9-97.9c-15.4,0-38.3,7.4-58.6,9.9c-10.1,1.2-14.6,8.4-24.7,9.6c-17.1,2.1-15.1,1.4-29.2,5
	c-20.2,5.2-33.3,9.5-44.1,24.4C748.6,425.3,735.7,440.1,735.7,461.6 M743,366.2h29.4c17.4,0,66.9-26.4,85.1-32.3
	c32.3-10.5,53.6-19.9,66.3-51.1c24-58.9-35.5-134.2-90.3-134.2h-9.8c-41.4,0-91,65.4-115.6,89.9C660.9,285.4,707,366.2,743,366.2z
	 M539.9,187.7v9.8c0,30.4,51.4,66,83.2,66h4.9c27.9,0,59.7-43,72.5-62.1c12.3-18.4,49.9-63.6,49.9-87.1V97.2
	c0-37-55.4-83.2-88.1-83.2h-22c-40.5,0-71.9,24.6-78.5,58.5C556.6,98.5,539.9,163.7,539.9,187.7z M300,94.7v14.7
	c0,29.5,37.1,70,50.9,91c14.9,22.6,43.8,63.1,78.8,63.1h2.4c30.4,0,80.8-39.4,80.8-70.9c0-27.1-15.1-84.4-21-116
	c-5.9-32-38.1-62.5-74.5-62.5h-17.1C356.5,14,300,57.3,300,94.7z M121.4,248.8c0,46.1,24.2,74.9,61.3,83c27.3,6,79.4,36.8,110,36.8
	h2.5c40.8,0,71-46,71-88c0-8.5-16.8-40.4-23.4-45.1c-7.6-5.3-27.8-26.9-35.9-35.1c-20.7-20.8-47.6-54.4-85.1-54.4
	c-29.8,0-52.4,17-67.9,32.4C142.5,189.7,121.4,228.5,121.4,248.8z M114,574.1h17.1c18,0,104.1-15,119.6-19.9
	c42-13.4,64-20.6,64-77.9v-4.9c0-48.4-24.9-75.4-65-84.2c-37.1-8.1-87.3-25.8-123.4-25.8h-9.8c-44.3,0-77.4,58.1-80.8,105.2
	C31.7,519,66.3,574.1,114,574.1z M121.4,728.2v2.4c0,66.4,93.7,158,166.9,117.9c32.4-17.8,50.1-53.2,71.9-82.2
	c13.2-17.6,54.9-74.7,54.9-99.3v-2.4c0-43.5-51.3-97.8-93-97.8h-12.2c-26.8,0-90.2,46.4-114.1,59.6
	C157.9,647.2,121.4,671,121.4,728.2z M390.6,877.4c0,26.7,21.7,59.2,37.1,70.5c58.9,43.3,121.2,52.8,183.7,5.8
	c12.1-9.1,31.3-36.6,31.3-56.8v-41.6c0-8-22.1-133.4-24.5-139.4c-17.8-45.2-32.7-66.1-95.4-66.1H513c-55,0-78.4,34.7-90.6,78.2
	c-6.2,22-31.8,117.7-31.8,137V877.4z M635.3,659.7c0,42.6,46.3,86.2,62,116.6c15.9,30.7,54.6,81.5,99.5,81.5h22
	c20.2,0,60.9-30.3,72.8-42.2c12.4-12.3,37.3-57.3,37.3-80.1v-9.8c0-59-42.2-76-76.8-101.8c-29.1-21.6-76.3-54.8-123.9-54.8H721
	c-20.6,0-15.4,7.6-31.3,12.7c-14.5,4.6-13.7,11.1-23.1,21C654.1,615.9,635.3,635.5,635.3,659.7z"/>
</svg>
